<svg id="Pictograms" xmlns="http://www.w3.org/2000/svg" viewBox="0 0 240 240"><defs><style>.cls-1{fill:#fff;}.cls-2{fill:#008fd3;}.cls-3{opacity:0.4;}.cls-4,.cls-5{fill:#f0ab00;}.cls-5{opacity:0.7;}</style></defs><title>281267-pictogram-neg</title><path class="cls-1" d="M212,164V44H28V164h80v32H80v16h80V196H132V164ZM32,160V48H208V160H32Zm124,40v8H84v-8h72Zm-28-4H112V164h16ZM200,56H40v96H200Zm-4,92H44V60H196Z"/><rect class="cls-2" x="64" y="27.5" width="28.53" height="16.5"/><rect class="cls-2" x="119.47" y="16.04" width="28.53" height="27.96"/><polygon class="cls-2" points="148.18 112 148.18 59.98 120.35 59.98 120.35 76 92.53 76 92.53 59.98 64 59.98 64 112 64 148 92.53 148 120.35 148 148.18 148 176 148 176 112 148.18 112"/><g class="cls-3"><rect class="cls-4" x="119.76" y="15.76" width="27.96" height="28.53" transform="translate(163.76 -103.71) rotate(90)"/><rect class="cls-4" x="90.25" y="90.08" width="88.02" height="27.82" transform="translate(238.25 -30.27) rotate(90)"/></g><rect class="cls-5" x="70.44" y="98.09" width="72" height="27.82" transform="translate(218.44 5.56) rotate(90)"/><rect class="cls-4" x="70.01" y="21.49" width="16.5" height="28.53" transform="translate(114.01 -42.51) rotate(90)"/><rect class="cls-4" x="34.25" y="89.73" width="88.02" height="28.53" transform="translate(182.25 25.73) rotate(90)"/></svg>