<svg xmlns="http://www.w3.org/2000/svg" viewBox="0 0 248 248"><defs><style>.cls-1{fill:#008fd3;}.cls-2,.cls-3,.cls-4{fill:#f0ab00;}.cls-3{opacity:0.7;}.cls-4{opacity:0.4;}.cls-5{fill:#fff;}</style></defs><title>283428-pictogram-neg</title><g id="color_band" data-name="color band"><path class="cls-1" d="M168.41,113.82a14.15,14.15,0,1,1,28.29,0v55.75H168.41Zm14.15-18.43a11,11,0,1,0-11-11A11,11,0,0,0,182.56,95.39Z"/></g><g id="_100_band" data-name="100% band"><circle class="cls-2" cx="182.56" cy="84.38" r="11"/></g><g id="_70_band" data-name="70% band"><path class="cls-3" d="M182.56,99.67a14.15,14.15,0,0,0-14.15,14.15V123h28.29v-9.16A14.15,14.15,0,0,0,182.56,99.67Z"/></g><g id="_40_band" data-name="40% band"><rect class="cls-4" x="168.41" y="122.97" width="28.29" height="23.31"/></g><g id="outlines_--_combound_path" data-name="outlines -- combound path"><path class="cls-5" d="M65.57,93A11.45,11.45,0,1,0,54.12,81.57,11.46,11.46,0,0,0,65.57,93Zm0-18.9a7.45,7.45,0,1,1-7.45,7.45A7.46,7.46,0,0,1,65.57,74.12Zm77.61,29.08a11.45,11.45,0,1,0-11.45-11.45A11.46,11.46,0,0,0,143.18,103.2Zm0-18.9a7.45,7.45,0,1,1-7.45,7.45A7.46,7.46,0,0,1,143.18,84.3Zm-38.45,26.91A11.45,11.45,0,1,0,93.28,99.76,11.46,11.46,0,0,0,104.73,111.21Zm0-18.9a7.45,7.45,0,1,1-7.45,7.45A7.46,7.46,0,0,1,104.73,92.31Zm52.6,77.26V121.75a14.15,14.15,0,0,0-28.3,0v47.82H118.88V129.76a14.15,14.15,0,0,0-28.3,0v39.81H79.73V111.14a14.15,14.15,0,1,0-28.3,0v58.43H34v4H214.12v-4Zm-101.91,0V111.14a10.15,10.15,0,1,1,20.3,0v58.43Zm39.16,0V129.76a10.15,10.15,0,0,1,20.3,0v39.81Zm38.45,0V121.75a10.15,10.15,0,0,1,20.3,0v47.82Z"/></g></svg>