<svg id="Pictograms" xmlns="http://www.w3.org/2000/svg" viewBox="0 0 240 240"><defs><style>.cls-1{fill:#970a82;}.cls-2,.cls-3,.cls-4{fill:#f0ab00;}.cls-3{opacity:0.7;}.cls-4{opacity:0.4;}.cls-5{fill:#fff;}</style></defs><title>281361-pictogram-neg</title><rect class="cls-1" x="71.5" y="76.5" width="96.5" height="91.5"/><rect class="cls-2" x="71.5" y="76.5" width="24.13" height="91.5"/><rect class="cls-3" x="95.63" y="76.5" width="24.13" height="91.5"/><rect class="cls-4" x="119.75" y="76.5" width="24.13" height="91.5"/><path class="cls-5" d="M56,188a12,12,0,1,0,12,12A12,12,0,0,0,56,188Zm0,20a8,8,0,1,1,8-8A8,8,0,0,1,56,208Zm128-20a12,12,0,1,0,12,12A12,12,0,0,0,184,188Zm0,20a8,8,0,1,1,8-8A8,8,0,0,1,184,208Zm0-40V122a10,10,0,0,0-10-10H66a10,10,0,0,0-10,10v46H40V109a22.26,22.26,0,0,0-6.65-14.81l-12-10.69a2,2,0,0,0-2.66,3l12,10.69A18.33,18.33,0,0,1,36,109v59H28.5v16h183V168ZM60,122a6,6,0,0,1,6-6H174a6,6,0,0,1,6,6v46H60Zm147.5,58H32.5v-8h175Z"/></svg>